Force Data File
version=1
nRows=68
nColumns=13
Range=1.000000e-02-10 seconds
endheader
time 	Force_r_vx 	Force_r_vy 	Force_r_vz 	Force_r_px 	Force_r_py 	Force_r_pz 	Force_l_vx 	Force_l_vy 	Force_l_vz 	Force_l_px 	Force_l_py 	Force_l_pz 		
7.510000 51.983529 205.020884 -3.054584 0.364818 0.473162 -0.096560 -2543.977965 2826.317191 -42.108997 0.322833 0.126187 -0.335175
7.520000 55.472011 211.062602 -3.145067 0.376015 0.473344 -0.096785 -2356.532021 2984.174917 -44.467525 0.311299 0.127133 -0.335180
7.530000 59.691022 216.187039 -3.233573 0.387123 0.472639 -0.096950 -2159.193508 3129.847684 -46.814043 0.299589 0.128864 -0.335117
7.540000 61.074771 218.860556 -3.267438 0.398125 0.470784 -0.097053 -1953.580656 3262.205029 -48.702482 0.288123 0.131669 -0.335152
7.550000 59.602078 219.363548 -3.282461 0.408914 0.467996 -0.097197 -1741.354016 3380.400246 -50.582850 0.276938 0.135191 -0.335117
7.560000 56.700903 216.391671 -3.237149 0.419470 0.463953 -0.097299 -1519.970571 3485.522269 -52.142277 0.266019 0.139730 -0.335045
7.570000 52.038397 213.990342 -3.198665 0.429799 0.458996 -0.097394 -1290.372102 3576.999396 -53.467937 0.255409 0.145061 -0.335105
7.580000 46.465071 209.441822 -3.134748 0.439800 0.453021 -0.097382 -1051.058226 3654.556509 -54.698313 0.245152 0.151509 -0.335048
7.590000 39.918331 204.182016 -3.067791 0.449315 0.446166 -0.097351 -806.378573 3716.270581 -55.836174 0.235390 0.158644 -0.335029
7.600000 33.444273 199.951170 -3.010090 0.458394 0.438479 -0.096995 -555.832888 3762.032815 -56.634114 0.226330 0.166618 -0.334974
7.610000 30.188056 194.753702 -2.935172 0.466640 0.430190 -0.097026 -306.813237 3790.459496 -57.126764 0.218090 0.175141 -0.335008
7.620000 28.409308 188.425985 -2.831544 0.474106 0.421183 -0.097011 -59.581055 3802.305461 -57.138598 0.210661 0.183893 -0.334961
7.630000 27.708662 183.635003 -2.767371 0.480838 0.411599 -0.097094 186.299502 3798.196899 -57.238657 0.204090 0.192973 -0.335038
7.640000 26.703298 179.723921 -2.701993 0.486989 0.401372 -0.097067 439.935435 3777.156218 -56.786268 0.198202 0.203065 -0.335083
7.650000 26.786983 180.462623 -2.710586 0.492284 0.390466 -0.097082 691.354224 3739.109922 -56.162209 0.193204 0.213293 -0.335075
7.660000 25.667397 182.167945 -2.753155 0.496995 0.378913 -0.097114 950.714877 3681.848590 -55.644815 0.188942 0.224390 -0.335048
7.670000 24.920558 183.858304 -2.770955 0.500772 0.367198 -0.096845 1201.299234 3607.970909 -54.376248 0.185651 0.235402 -0.335045
7.680000 25.909009 186.232117 -2.818592 0.503774 0.355080 -0.096538 1450.491739 3515.217398 -53.202235 0.183397 0.246687 -0.335007
7.690000 28.525221 188.257365 -2.847224 0.505792 0.342682 -0.096083 1697.460325 3402.840430 -51.464910 0.182059 0.258352 -0.335055
7.700000 28.840311 190.279713 -2.888290 0.506979 0.330021 -0.095982 1937.304381 3272.090788 -49.667659 0.181563 0.269803 -0.335113
7.710000 29.664742 194.988719 -2.955019 0.507218 0.317130 -0.096522 2174.721552 3119.519478 -47.275764 0.181870 0.281626 -0.335163
7.720000 30.799814 201.130934 -3.046965 0.506618 0.304179 -0.096203 2405.189947 2945.648056 -44.624099 0.183112 0.293550 -0.335210
7.730000 32.368787 207.506275 -3.154602 0.505106 0.291101 -0.095702 2626.015376 2750.269467 -41.810814 0.185101 0.305392 -0.335243
7.740000 32.569607 215.251542 -3.280465 0.502802 0.278148 -0.095606 2831.778193 2537.853060 -38.677254 0.187757 0.316948 -0.335110
7.750000 33.229792 223.701777 -3.416331 0.499269 0.265437 -0.095305 3025.508813 2303.122175 -35.172848 0.191406 0.328668 -0.335202
7.760000 34.965822 237.144545 -3.623302 0.495264 0.252855 -0.095292 3201.748946 2050.954498 -31.336281 0.195713 0.340159 -0.335187
7.770000 38.815010 255.099748 -3.909128 0.490759 0.240621 -0.095817 3359.743211 1780.438295 -27.283291 0.201146 0.351629 -0.335469
7.780000 41.303887 277.740843 -4.257458 0.485118 0.228647 -0.095997 3495.352187 1496.428971 -22.938590 0.206726 0.362722 -0.335138
7.790000 43.861831 304.670416 -4.684426 0.478656 0.217214 -0.096150 3608.142567 1199.371388 -18.440803 0.213309 0.373541 -0.335123
7.800000 47.232826 335.189895 -5.157907 0.471517 0.206154 -0.096210 3696.487966 890.732627 -13.706607 0.220496 0.384161 -0.335001
7.810000 52.333550 367.529806 -5.665620 0.463618 0.195595 -0.096212 3758.335367 575.855526 -8.877045 0.228410 0.394179 -0.334992
7.820000 58.455249 401.392304 -6.181472 0.455062 0.185652 -0.096201 3793.345400 256.046101 -3.943129 0.236889 0.404012 -0.334939
7.830000 65.576097 434.398507 -6.728538 0.445805 0.176337 -0.096110 3801.160892 -63.047065 0.976556 0.245968 0.413096 -0.334918
7.840000 76.787283 466.971396 -7.231282 0.436054 0.167569 -0.095988 3782.540341 -380.529919 5.892693 0.255657 0.421678 -0.334859
7.850000 89.210129 492.599121 -7.624583 0.425887 0.159841 -0.095892 3739.139715 -685.914061 10.616763 0.265643 0.429520 -0.334826
7.860000 101.328860 511.976699 -7.926686 0.415295 0.152741 -0.095804 3671.798231 -984.522549 15.242883 0.276108 0.436791 -0.334910
7.870000 111.124586 524.082672 -8.128027 0.404387 0.146620 -0.095736 3582.898552 -1270.382058 19.702426 0.286974 0.443296 -0.334999
7.880000 120.526279 526.726273 -8.169567 0.393222 0.141215 -0.095681 3473.735225 -1544.198492 23.950642 0.298194 0.449233 -0.335041
7.890000 126.602290 520.397768 -8.053375 0.381838 0.136939 -0.095707 3349.467844 -1798.354168 27.830289 0.309319 0.454134 -0.335123
7.900000 129.088647 505.280955 -7.785276 0.369920 0.133343 -0.095192 3205.953943 -2042.919969 31.476936 0.320720 0.458415 -0.335153
7.910000 126.632634 482.622102 -7.430878 0.358242 0.130902 -0.095105 3051.466043 -2267.037272 34.905315 0.332158 0.461866 -0.335280
7.920000 124.615764 454.313793 -6.979329 0.346412 0.129145 -0.095033 2877.456441 -2483.985258 38.159862 0.344561 0.464395 -0.336161
7.930000 117.175208 421.159452 -6.458584 0.334541 0.128516 -0.094955 2700.953531 -2674.607304 41.015762 0.355763 0.465985 -0.335670
7.940000 109.663221 387.708028 -5.930712 0.323009 0.128855 -0.095126 2513.620544 -2851.386975 43.617239 0.367365 0.466616 -0.335689
7.950000 102.008705 355.332606 -5.432512 0.311308 0.130139 -0.095064 2313.474391 -3015.973802 46.109793 0.379021 0.466294 -0.335697
7.960000 95.152049 324.562575 -4.958771 0.299711 0.132256 -0.095078 2104.029241 -3165.750342 48.367353 0.390554 0.464928 -0.335801
7.970000 89.984966 297.463650 -4.525405 0.288277 0.135156 -0.094890 1886.952526 -3300.109635 50.205574 0.401857 0.462684 -0.335828
7.980000 84.445341 270.898769 -4.126478 0.277066 0.139073 -0.094847 1660.895479 -3419.687268 52.090548 0.412993 0.459573 -0.335747
7.990000 78.474441 245.813208 -3.735223 0.266077 0.143796 -0.094753 1428.285707 -3523.670540 53.543482 0.423649 0.455407 -0.335758
8.000000 72.173287 220.473942 -3.360164 0.255625 0.149676 -0.094672 1190.842908 -3611.051322 55.034737 0.433814 0.450555 -0.335676
8.010000 62.645698 193.389846 -2.935471 0.245642 0.156100 -0.094646 950.261132 -3681.710787 55.884809 0.443390 0.444726 -0.335708
8.020000 52.262239 166.781824 -2.536585 0.236001 0.163283 -0.094574 704.900382 -3736.587529 56.829767 0.452383 0.438230 -0.335705
8.030000 41.644980 143.959593 -2.189638 0.227181 0.171517 -0.094658 455.875541 -3775.029642 57.418526 0.460680 0.430822 -0.335604
8.040000 32.060614 127.949301 -1.941577 0.218919 0.180100 -0.094701 206.932134 -3796.617784 57.612087 0.468257 0.422865 -0.335720
8.050000 25.507025 118.630100 -1.800923 0.211384 0.189465 -0.094751 -47.562440 -3801.722721 57.713945 0.475078 0.413906 -0.335784
8.060000 20.827496 114.148857 -1.731672 0.204696 0.199142 -0.094789 -300.455687 -3790.047320 57.496137 0.481181 0.404388 -0.335832
8.070000 18.319549 113.086526 -1.718214 0.198779 0.209389 -0.094864 -551.681245 -3761.848697 57.156759 0.485851 0.394233 -0.335478
8.080000 17.113929 111.853829 -1.702243 0.193801 0.219911 -0.094835 -807.067000 -3715.454136 56.543482 0.490725 0.383573 -0.335974
8.090000 14.480141 108.743728 -1.650035 0.189786 0.230903 -0.094847 -1059.254880 -3651.597340 55.407912 0.494645 0.372694 -0.336274
8.100000 11.727307 102.823731 -1.557671 0.186713 0.242064 -0.094791 -1309.258517 -3569.727952 54.077625 0.496985 0.360985 -0.335402
8.110000 5.759987 94.366055 -1.429420 0.184558 0.253536 -0.094795 -1555.848823 -3469.370637 52.552659 0.498173 0.349148 -0.329570
8.120000 -0.047673 84.740687 -1.280004 0.183284 0.265140 -0.094743 -1805.826818 -3345.985281 50.540965 0.500394 0.336923 -0.335485
8.130000 -6.186900 75.618859 -1.137805 0.182868 0.276762 -0.094629 -2047.412959 -3203.808428 48.206366 0.500855 0.324479 -0.335435
8.140000 -13.090577 67.487845 -1.007135 0.183352 0.288613 -0.094584 -2285.161112 -3038.822198 45.348963 0.500534 0.311782 -0.335570
8.150000 -17.999720 62.006970 -0.928774 0.184704 0.300293 -0.094506 -2512.965901 -2853.406764 42.739891 0.499510 0.298931 -0.335565
8.160000 -22.310976 59.457917 -0.892255 0.186788 0.311946 -0.094514 -2728.130686 -2648.602154 39.746244 0.497730 0.286238 -0.336211
8.170000 -24.317561 60.815474 -0.904757 0.189660 0.323574 -0.094458 -2931.797977 -2421.255596 36.021229 0.495014 0.273455 -0.335648
8.180000 -24.178553 62.784489 -0.937335 0.193430 0.335061 -0.094429 -3117.826661 -2176.672485 32.496435 0.491669 0.260916 -0.335808
